<svg width="57" height="47" viewBox="0 0 57 47" fill="none" xmlns="http://www.w3.org/2000/svg">
  <path
    d="M19.4599 14.268C16.8627 15.2602 15.4462 16.5825 14.189 19.0758C12.9865 21.4603 13.0886 23.2133 13.3654 25.8729C13.6113 28.2352 14.2723 29.4816 15.1773 31.6753C16.1262 33.9756 16.6337 35.3375 18.1421 37.312C19.3066 38.8363 20.0861 39.6222 21.6012 40.7935C23.9283 42.5925 28.3545 44.1091 28.3545 44.1091C28.3545 44.1091 24.7624 44.9757 22.4248 44.9381C18.1121 44.8687 15.5186 43.958 11.8829 41.6224C8.89238 39.7012 7.3561 38.1743 5.45904 35.1568C3.69578 32.3522 3.03758 30.4728 2.49415 27.1992C1.84613 23.2955 3.15302 17.0863 3.15302 17.0863C3.15302 17.0863 5.02747 12.5525 6.94148 10.1234C9.00955 7.49884 10.4373 6.07922 13.3654 4.48676C16.3038 2.88867 18.2672 2.36676 21.6012 2.16579C25.1164 1.95389 27.2212 2.35409 30.4958 3.65784C33.3173 4.78119 34.8768 5.70742 37.0845 7.80244C39.6157 10.2045 40.7113 12.0209 42.0259 15.2627C43.194 18.1431 43.7823 19.9455 43.6731 23.0546C43.5794 25.7223 43.577 27.5206 42.0259 29.6859C40.6484 31.6091 39.3299 32.4509 37.0845 33.1674C34.8157 33.8913 33.1559 34.1604 30.99 33.1674C30.0644 32.743 28.8487 31.6753 28.8487 31.6753C28.8487 31.6753 31.0802 29.1662 31.8136 27.1992C32.5872 25.124 32.8585 23.7446 32.4724 21.5625C32.0485 19.1665 31.3042 17.7204 29.5075 16.0916C27.9252 14.6572 26.6678 14.1158 24.5661 13.7707C22.5888 13.4459 21.3329 13.5525 19.4599 14.268ZM19.4599 14.268C21.2117 13.5942 22.3789 13.512 24.2366 13.7707C26.0116 14.0179 28.5192 15.4286 28.5192 15.4286L27.3662 16.4233C27.3662 16.4233 25.4007 18.9655 24.8955 20.8994C24.273 23.2821 24.3578 24.8954 25.2249 27.1992C26.1004 29.5252 27.0868 30.8475 29.1781 32.1727C30.9876 33.3194 32.3133 33.7708 34.449 33.6648C36.6681 33.5546 37.9613 32.8762 39.7199 31.5096C41.3901 30.2117 42.1963 29.1569 43.0142 27.1992C44.0393 24.7458 43.5084 20.4021 43.5084 20.4021L41.5318 14.2681C40.7599 11.8726 39.8058 10.9213 38.2375 9.12876C36.7296 7.4054 35.6991 6.57328 33.7901 5.31573C32.2735 4.31665 29.6722 3.16053 29.6722 3.16053C29.6722 3.16053 31.536 2.36828 32.8018 2.16583C34.9069 1.82915 36.1557 2.20225 38.2375 2.66318C40.944 3.26245 42.4723 3.84352 44.8261 5.31573C47.2627 6.83977 48.4805 8.02578 50.2617 10.2892C52.0849 12.6061 52.9725 14.1115 53.8855 16.9206C54.7537 19.5922 54.8737 24.0493 54.8737 24.0493C54.8737 24.0493 54.3194 29.5255 52.8972 32.6701C51.5588 35.6292 48.1204 39.4672 48.1204 39.4672C48.1204 39.4672 43.7083 42.9017 40.3788 43.9434C37.3532 44.89 35.4621 45.0706 32.3077 44.7723C29.0258 44.4619 27.1348 43.8662 24.2366 42.2856C21.1878 40.6228 19.5565 39.2807 17.4833 36.4831C15.3824 33.6482 14.5282 31.6659 13.8595 28.1939C13.2842 25.2066 12.7986 23.2515 13.8595 20.4021C14.9939 17.3557 16.4405 15.4293 19.4599 14.268ZM28.5195 44.3411C28.5173 44.3417 28.5151 44.3423 28.513 44.3429C26.7353 44.8389 24.863 45.1038 22.9299 45.1038C11.3785 45.1038 2 35.2422 2 23.5519C2 11.8616 11.3785 2 22.9299 2C24.875 2 26.7584 2.26828 28.5458 2.77029L28.7009 2.71283L28.7107 2.71019C30.2004 2.30946 31.7552 2.07064 33.3555 2.01344C33.6054 2.0045 33.8565 2 34.1085 2C45.66 2 55.0385 11.8616 55.0385 23.5519C55.0385 35.2422 45.66 45.1038 34.1085 45.1038C32.1732 45.1038 30.2989 44.8382 28.5195 44.3411ZM2.45757 23.5519C2.45757 12.1424 11.6155 2.47918 22.9299 2.47918C34.2443 2.47918 43.4023 12.1424 43.4023 23.5519H43.4011C43.4011 28.7239 39.2485 33.3305 34.1085 33.3305C32.1846 33.3305 30.399 32.741 28.9178 31.7321C31.2054 29.9298 32.6801 26.7166 32.6801 23.5519C32.6801 18.0992 28.307 13.2942 22.9299 13.2942C17.5529 13.2942 13.1798 18.0992 13.1798 23.5519H13.1786C13.1786 32.9586 19.2509 41.322 27.6415 44.0746C26.129 44.4343 24.5516 44.6247 22.9299 44.6247C11.6155 44.6247 2.45757 34.9615 2.45757 23.5519ZM28.5452 43.8524H28.5352C28.5276 43.8545 28.5265 43.8427 28.519 43.8449C19.9253 41.3878 13.6362 33.007 13.6362 23.5519H13.6373C13.6373 18.38 17.7899 13.7734 22.9299 13.7734C24.8538 13.7734 26.6394 14.3628 28.1207 15.3717C25.833 17.1741 24.3584 20.3873 24.3584 23.5519C24.3584 29.0046 28.7315 33.8096 34.1085 33.8096C39.4856 33.8096 43.8587 29.0046 43.8587 23.5519H43.8598C43.8598 14.1452 37.7875 5.7818 29.3969 3.02929C30.6792 2.72432 32.0081 2.54107 33.3711 2.49234C33.6158 2.4836 33.8617 2.47918 34.1085 2.47918C45.4229 2.47918 54.5809 12.1424 54.5809 23.5519C54.5809 34.9615 45.4229 44.6247 34.1085 44.6247C32.1799 44.6247 30.3139 44.3555 28.5452 43.8524ZM28.5194 15.6589C26.2679 17.3724 24.816 20.492 24.816 23.5519C24.816 26.6109 26.2686 29.7318 28.5191 31.4449C30.7706 29.7314 32.2225 26.6119 32.2225 23.5519C32.2225 20.4929 30.7698 17.3721 28.5194 15.6589Z"
    stroke="black" stroke-width="3.5" />
</svg>