<svg width="73" height="14" viewBox="0 0 73 14" fill="none" xmlns="http://www.w3.org/2000/svg">
  <path
    d="M0.209106 10.4534H1.68504C1.80253 11.604 2.67635 12.2866 4.02745 12.2866C5.36387 12.2866 6.223 11.5733 6.223 10.4611C6.223 9.56361 5.65759 9.03435 4.28446 8.68151L3.31518 8.44373C1.36195 7.93748 0.458768 6.94032 0.458768 5.32952C0.458768 3.39657 1.85393 2.14628 4.01277 2.14628C6.07614 2.14628 7.48599 3.38123 7.56677 5.25282H6.09817C5.98068 4.17128 5.20967 3.53463 4.02745 3.53463C2.75712 3.53463 1.99345 4.16361 1.99345 5.21446C1.99345 6.11958 2.54417 6.64117 3.85856 6.971L4.82784 7.22412C6.88387 7.73804 7.75768 8.68151 7.75768 10.3537C7.75768 12.394 6.31112 13.675 4.01277 13.675C1.75847 13.675 0.311908 12.4477 0.209106 10.4534Z"
    fill="black" />
  <path
    d="M15.7982 13.4449L14.9538 10.392H11.4292L10.5774 13.4449H9.03536L12.3764 2.3764H14.08L17.421 13.4449H15.7982ZM13.1695 4.14827L11.789 9.09571H14.594L13.2209 4.14827H13.1695Z"
    fill="black" />
  <path
    d="M18.8015 10.4534H20.2775C20.3949 11.604 21.2688 12.2866 22.6199 12.2866C23.9563 12.2866 24.8154 11.5733 24.8154 10.4611C24.8154 9.56361 24.25 9.03435 22.8769 8.68151L21.9076 8.44373C19.9544 7.93748 19.0512 6.94032 19.0512 5.32952C19.0512 3.39657 20.4463 2.14628 22.6052 2.14628C24.6686 2.14628 26.0784 3.38123 26.1592 5.25282H24.6906C24.5731 4.17128 23.8021 3.53463 22.6199 3.53463C21.3495 3.53463 20.5859 4.16361 20.5859 5.21446C20.5859 6.11958 21.1366 6.64117 22.451 6.971L23.4202 7.22412C25.4763 7.73804 26.3501 8.68151 26.3501 10.3537C26.3501 12.394 24.9035 13.675 22.6052 13.675C20.3509 13.675 18.9043 12.4477 18.8015 10.4534Z"
    fill="black" />
  <path d="M32.5843 13.4449H31.0569V3.79543H27.9068V2.3764H35.7344V3.79543H32.5843V13.4449Z"
    fill="black" />
  <path d="M44.7589 12.0028V13.4449H38.3338V2.3764H39.8465V12.0028H44.7589Z" fill="black" />
  <path
    d="M50.5452 3.1281C49.8917 3.1281 49.407 2.65253 49.407 1.99287C49.407 1.32554 49.8917 0.849976 50.5452 0.849976C51.2061 0.849976 51.6834 1.32554 51.6834 1.99287C51.6834 2.65253 51.2061 3.1281 50.5452 3.1281ZM53.923 13.4449H47.2041V12.2022H49.899V6.32668H47.2629V5.08407H51.3382V12.2022H53.923V13.4449Z"
    fill="black" />
  <path
    d="M56.3461 13.4449V5.08407H57.7707V6.54145H57.8735C58.292 5.50594 59.1952 4.92299 60.3921 4.92299C62.1324 4.92299 63.0723 6.01219 63.0723 8.02185V13.4449H61.5964V8.40537C61.5964 6.971 61.0457 6.296 59.8634 6.296C58.6372 6.296 57.8147 7.19344 57.8147 8.54344V13.4449H56.3461Z"
    fill="black" />
  <path
    d="M67.7645 8.72753L71.0394 5.08407H72.7871L69.725 8.44373L73 13.4449H71.2671L68.6603 9.44855L67.6543 10.4764V13.4449H66.1857V1.82412H67.6543V8.72753H67.7645Z"
    fill="black" />
</svg>