<svg width="221" height="41" viewBox="0 0 221 41" fill="none" xmlns="http://www.w3.org/2000/svg">
<path d="M19.266 39.1672C21.3566 39.2006 24.5691 38.4303 24.5691 38.4303C24.5691 38.4303 20.6107 37.0822 18.5295 35.4831C17.1746 34.442 16.4775 33.7433 15.4361 32.3884C14.0871 30.6333 13.6332 29.4228 12.7845 27.3781C11.9752 25.4281 11.3841 24.3202 11.1642 22.2204C10.9166 19.8563 10.8254 18.2981 11.9007 16.1784C13.025 13.9622 14.2919 12.7868 16.6145 11.9049C18.2896 11.2689 19.4128 11.1742 21.181 11.4628C23.0607 11.7696 24.1851 12.2508 25.6002 13.5259C27.207 14.9737 27.8726 16.2592 28.2518 18.3889C28.5971 20.3285 28.3544 21.5547 27.6625 23.3993C27.0067 25.1477 25.011 27.3781 25.011 27.3781C25.011 27.3781 26.0983 28.3271 26.926 28.7044C28.863 29.5871 30.3474 29.3478 32.3763 28.7044C34.3845 28.0675 35.5636 27.3192 36.7955 25.6097C38.1827 23.685 38.1848 22.0865 38.2686 19.7152C38.3663 16.9516 37.8401 15.3494 36.7955 12.7891C35.6198 9.90743 34.6401 8.2929 32.3763 6.15773C30.402 4.29549 29.0074 3.47217 26.4841 2.47364C23.5556 1.31475 21.6732 0.959014 18.5295 1.14737C15.5479 1.32601 13.792 1.78993 11.1642 3.21046C8.54559 4.62597 7.2687 5.88786 5.41921 8.22082C3.7075 10.38 2.03115 14.4101 2.03115 14.4101C2.03115 14.4101 0.862396 19.9293 1.44193 23.3993C1.92791 26.3091 2.51655 27.9797 4.09345 30.4727C5.79001 33.1549 7.16392 34.5122 9.83841 36.2199C13.0898 38.296 15.4092 39.1055 19.266 39.1672Z" fill="black"/>
<path d="M16.6145 11.9049C18.1812 11.306 19.2251 11.2329 20.8864 11.4629C22.4738 11.6826 24.7164 12.9365 24.7164 12.9365L23.6852 13.8207C23.6852 13.8207 21.9275 16.0804 21.4756 17.7995C20.919 19.9174 20.9948 21.3514 21.7703 23.3993C22.5532 25.4669 23.4353 26.6422 25.3056 27.8202C26.9239 28.8395 28.1095 29.2407 30.0194 29.1465C32.004 29.0485 33.1605 28.4455 34.7332 27.2308C36.2269 26.0771 36.9479 25.1395 37.6794 23.3993C38.5961 21.2185 38.1213 17.3574 38.1213 17.3574L36.3536 11.9049C35.6633 9.77563 34.8101 8.93003 33.4075 7.33667C32.059 5.8048 31.1374 5.06514 29.4302 3.94731C28.0739 3.05925 25.7475 2.03159 25.7475 2.03159C25.7475 2.03159 27.4144 1.32736 28.5464 1.14741C30.429 0.84813 31.5458 1.17978 33.4075 1.5895C35.8279 2.12218 37.1948 2.63868 39.2998 3.94731C41.4789 5.30202 42.568 6.35624 44.1609 8.36822C45.7914 10.4277 46.5852 11.7658 47.4016 14.2628C48.1781 16.6375 48.2855 20.5994 48.2855 20.5994C48.2855 20.5994 47.7897 25.4671 46.5178 28.2623C45.3208 30.8927 42.2459 34.3042 42.2459 34.3042C42.2459 34.3042 38.3001 37.3571 35.3225 38.283C32.6167 39.1244 30.9255 39.285 28.1044 39.0198C25.1694 38.744 23.4783 38.2144 20.8864 36.8094C18.1599 35.3314 16.7009 34.1384 14.8468 31.6517C12.968 29.1317 12.2041 27.3697 11.6061 24.2835C11.0915 21.6281 10.6573 19.8902 11.6061 17.3574C12.6205 14.6495 13.9143 12.9372 16.6145 11.9049Z" fill="#ffffff00"/>
<path fill-rule="evenodd" clip-rule="evenodd" d="M24.7166 38.6365C24.7147 38.637 24.7127 38.6376 24.7108 38.6381C23.121 39.079 21.4466 39.3145 19.7178 39.3145C9.38725 39.3145 1 30.5487 1 20.1573C1 9.76588 9.38725 1 19.7178 1C21.4573 1 23.1417 1.23847 24.7402 1.6847L24.8789 1.63363L24.8876 1.63128C26.2199 1.27507 27.6103 1.0628 29.0415 1.01195C29.265 1.004 29.4895 1 29.715 1C40.0455 1 48.4328 9.76588 48.4328 20.1573C48.4328 30.5487 40.0455 39.3145 29.715 39.3145C27.9842 39.3145 26.308 39.0784 24.7166 38.6365ZM1.40921 20.1573C1.40921 10.0154 9.59925 1.42594 19.7178 1.42594C29.8364 1.42594 38.0264 10.0154 38.0264 20.1573H38.0254C38.0254 24.7545 34.3117 28.8493 29.715 28.8493C27.9944 28.8493 26.3975 28.3253 25.0728 27.4286C27.1187 25.8265 28.4375 22.9703 28.4375 20.1573C28.4375 15.3104 24.5265 11.0393 19.7178 11.0393C14.9091 11.0393 10.9982 15.3104 10.9982 20.1573H10.9971C10.9971 28.5188 16.4277 35.9529 23.9314 38.3996C22.5788 38.7194 21.1681 38.8886 19.7178 38.8886C9.59925 38.8886 1.40921 30.2991 1.40921 20.1573ZM24.7396 38.2021H24.7306C24.7239 38.204 24.7229 38.1935 24.7161 38.1955C17.0307 36.0114 11.4063 28.5618 11.4063 20.1573H11.4074C11.4074 15.56 15.1211 11.4652 19.7178 11.4652C21.4384 11.4652 23.0353 11.9892 24.36 12.886C22.3141 14.4881 20.9953 17.3442 20.9953 20.1573C20.9953 25.0041 24.9062 29.2752 29.715 29.2752C34.5237 29.2752 38.4346 25.0041 38.4346 20.1573H38.4356C38.4356 11.7958 33.0051 4.3616 25.5013 1.91492C26.6481 1.64384 27.8365 1.48095 29.0555 1.43764C29.2743 1.42986 29.4942 1.42594 29.715 1.42594C39.8335 1.42594 48.0236 10.0154 48.0236 20.1573C48.0236 30.2991 39.8335 38.8886 29.715 38.8886C27.9901 38.8886 26.3213 38.6493 24.7396 38.2021ZM24.7165 13.1413C22.703 14.6643 21.4045 17.4373 21.4045 20.1573C21.4045 22.8764 22.7037 25.6505 24.7163 27.1733C26.7298 25.6502 28.0283 22.8772 28.0283 20.1573C28.0283 17.4381 26.7291 14.6641 24.7165 13.1413Z" fill="black"/>
<path d="M16.6145 11.9049C14.2919 12.7868 13.025 13.9622 11.9007 16.1784C10.8254 18.2981 10.9166 19.8563 11.1642 22.2204C11.3841 24.3202 11.9752 25.4281 12.7845 27.3781C13.6332 29.4228 14.0871 30.6333 15.4361 32.3884C16.4775 33.7433 17.1746 34.442 18.5295 35.4831C20.6107 37.0822 24.5691 38.4303 24.5691 38.4303C24.5691 38.4303 21.3566 39.2006 19.266 39.1672C15.4092 39.1055 13.0898 38.296 9.83841 36.2199C7.16392 34.5122 5.79001 33.1549 4.09345 30.4727C2.51655 27.9797 1.92791 26.3091 1.44193 23.3993C0.862396 19.9293 2.03115 14.4101 2.03115 14.4101C2.03115 14.4101 3.7075 10.38 5.41921 8.22082C7.2687 5.88786 8.54559 4.62597 11.1642 3.21046C13.792 1.78993 15.5479 1.32601 18.5295 1.14737C21.6732 0.959014 23.5556 1.31475 26.4841 2.47364C29.0074 3.47217 30.402 4.29549 32.3763 6.15773C34.6401 8.2929 35.6198 9.90743 36.7955 12.7891C37.8401 15.3494 38.3663 16.9516 38.2686 19.7152C38.1848 22.0865 38.1827 23.685 36.7955 25.6097C35.5636 27.3192 34.3845 28.0675 32.3763 28.7044C30.3474 29.3478 28.863 29.5871 26.926 28.7044C26.0983 28.3271 25.011 27.3781 25.011 27.3781C25.011 27.3781 27.0067 25.1477 27.6625 23.3993C28.3544 21.5547 28.5971 20.3285 28.2518 18.3889C27.8726 16.2592 27.207 14.9737 25.6002 13.5259C24.1851 12.2508 23.0607 11.7696 21.181 11.4628C19.4128 11.1742 18.2896 11.2689 16.6145 11.9049ZM16.6145 11.9049C18.1812 11.306 19.2251 11.2329 20.8864 11.4629C22.4738 11.6826 24.7164 12.9365 24.7164 12.9365L23.6852 13.8207C23.6852 13.8207 21.9275 16.0804 21.4756 17.7995C20.919 19.9174 20.9948 21.3514 21.7703 23.3993C22.5532 25.4669 23.4353 26.6422 25.3056 27.8202C26.9239 28.8395 28.1095 29.2407 30.0194 29.1465C32.004 29.0485 33.1605 28.4455 34.7332 27.2308C36.2269 26.0771 36.9479 25.1395 37.6794 23.3993C38.5961 21.2185 38.1213 17.3574 38.1213 17.3574L36.3536 11.9049C35.6633 9.77563 34.8101 8.93003 33.4075 7.33667C32.059 5.8048 31.1374 5.06514 29.4302 3.94731C28.0739 3.05925 25.7475 2.03159 25.7475 2.03159C25.7475 2.03159 27.4144 1.32736 28.5464 1.14741C30.429 0.84813 31.5458 1.17978 33.4075 1.5895C35.8279 2.12218 37.1948 2.63868 39.2998 3.94731C41.4789 5.30202 42.568 6.35624 44.1609 8.36822C45.7914 10.4277 46.5852 11.7658 47.4016 14.2628C48.1781 16.6375 48.2855 20.5994 48.2855 20.5994C48.2855 20.5994 47.7897 25.4671 46.5178 28.2623C45.3208 30.8927 42.2459 34.3042 42.2459 34.3042C42.2459 34.3042 38.3001 37.3571 35.3225 38.283C32.6167 39.1244 30.9255 39.285 28.1044 39.0198C25.1694 38.744 23.4783 38.2144 20.8864 36.8094C18.1599 35.3314 16.7009 34.1384 14.8468 31.6517C12.968 29.1317 12.2041 27.3697 11.6061 24.2835C11.0915 21.6281 10.6573 19.8902 11.6061 17.3574C12.6205 14.6495 13.9143 12.9372 16.6145 11.9049ZM24.7166 38.6365C24.7147 38.637 24.7127 38.6376 24.7108 38.6381C23.121 39.079 21.4466 39.3145 19.7178 39.3145C9.38725 39.3145 1 30.5487 1 20.1573C1 9.76588 9.38725 1 19.7178 1C21.4573 1 23.1417 1.23847 24.7402 1.6847L24.8789 1.63363L24.8876 1.63128C26.2199 1.27507 27.6103 1.0628 29.0415 1.01195C29.265 1.004 29.4895 1 29.715 1C40.0455 1 48.4328 9.76588 48.4328 20.1573C48.4328 30.5487 40.0455 39.3145 29.715 39.3145C27.9842 39.3145 26.308 39.0784 24.7166 38.6365ZM1.40921 20.1573C1.40921 10.0154 9.59925 1.42594 19.7178 1.42594C29.8364 1.42594 38.0264 10.0154 38.0264 20.1573H38.0254C38.0254 24.7545 34.3117 28.8493 29.715 28.8493C27.9944 28.8493 26.3975 28.3253 25.0728 27.4286C27.1187 25.8265 28.4375 22.9703 28.4375 20.1573C28.4375 15.3104 24.5265 11.0393 19.7178 11.0393C14.9091 11.0393 10.9982 15.3104 10.9982 20.1573H10.9971C10.9971 28.5188 16.4277 35.9529 23.9314 38.3996C22.5788 38.7194 21.1681 38.8886 19.7178 38.8886C9.59925 38.8886 1.40921 30.2991 1.40921 20.1573ZM24.7396 38.2021H24.7306C24.7239 38.204 24.7229 38.1935 24.7161 38.1955C17.0307 36.0114 11.4063 28.5618 11.4063 20.1573H11.4074C11.4074 15.56 15.1211 11.4652 19.7178 11.4652C21.4384 11.4652 23.0353 11.9892 24.36 12.886C22.3141 14.4881 20.9953 17.3442 20.9953 20.1573C20.9953 25.0041 24.9062 29.2752 29.715 29.2752C34.5237 29.2752 38.4346 25.0041 38.4346 20.1573H38.4356C38.4356 11.7958 33.0051 4.3616 25.5013 1.91492C26.6481 1.64384 27.8365 1.48095 29.0555 1.43764C29.2743 1.42986 29.4942 1.42594 29.715 1.42594C39.8335 1.42594 48.0236 10.0154 48.0236 20.1573C48.0236 30.2991 39.8335 38.8886 29.715 38.8886C27.9901 38.8886 26.3213 38.6493 24.7396 38.2021ZM24.7165 13.1413C22.703 14.6643 21.4045 17.4373 21.4045 20.1573C21.4045 22.8764 22.7037 25.6505 24.7163 27.1733C26.7298 25.6502 28.0283 22.8772 28.0283 20.1573C28.0283 17.4381 26.7291 14.6641 24.7165 13.1413Z" stroke="black" stroke-width="1.5"/>
<path d="M64 27.2177H67.1834C67.4368 29.64 69.3215 31.0772 72.2357 31.0772C75.1181 31.0772 76.9711 29.5754 76.9711 27.2339C76.9711 25.3445 75.7516 24.2303 72.79 23.4874L70.6994 22.9868C66.4865 21.9211 64.5385 19.8218 64.5385 16.4306C64.5385 12.3612 67.5477 9.72907 72.204 9.72907C76.6544 9.72907 79.6952 12.3289 79.8695 16.2691H76.7019C76.4485 13.9922 74.7855 12.6519 72.2357 12.6519C69.4957 12.6519 67.8486 13.9761 67.8486 16.1884C67.8486 18.0939 69.0364 19.192 71.8714 19.8864L73.962 20.4193C78.3965 21.5012 80.2812 23.4874 80.2812 27.0078C80.2812 31.3032 77.1612 34 72.204 34C67.3418 34 64.2217 31.4163 64 27.2177Z" fill="black"/>
<path d="M97.6236 33.5156L95.8023 27.0885H88.2001L86.363 33.5156H83.037L90.2432 10.2135H93.9176L101.124 33.5156H97.6236ZM91.9537 13.9438L88.9762 24.3595H95.0262L92.0646 13.9438H91.9537Z" fill="black"/>
<path d="M104.101 27.2177H107.285C107.538 29.64 109.423 31.0772 112.337 31.0772C115.219 31.0772 117.072 29.5754 117.072 27.2339C117.072 25.3445 115.853 24.2303 112.891 23.4874L110.801 22.9868C106.588 21.9211 104.64 19.8218 104.64 16.4306C104.64 12.3612 107.649 9.72907 112.305 9.72907C116.756 9.72907 119.797 12.3289 119.971 16.2691H116.803C116.55 13.9922 114.887 12.6519 112.337 12.6519C109.597 12.6519 107.95 13.9761 107.95 16.1884C107.95 18.0939 109.138 19.192 111.973 19.8864L114.063 20.4193C118.498 21.5012 120.383 23.4874 120.383 27.0078C120.383 31.3032 117.262 34 112.305 34C107.443 34 104.323 31.4163 104.101 27.2177Z" fill="black"/>
<path d="M133.829 33.5156H130.535V13.201H123.74V10.2135H140.623V13.201H133.829V33.5156Z" fill="black"/>
<path d="M160.088 30.4797V33.5156H146.23V10.2135H149.492V30.4797H160.088Z" fill="black"/>
<path d="M172.568 11.7961C171.158 11.7961 170.113 10.7949 170.113 9.4061C170.113 8.0012 171.158 7 172.568 7C173.993 7 175.023 8.0012 175.023 9.4061C175.023 10.7949 173.993 11.7961 172.568 11.7961ZM179.853 33.5156H165.362V30.8995H171.174V18.5299H165.489V15.9139H174.279V30.8995H179.853V33.5156Z" fill="black"/>
<path d="M185.08 33.5156V15.9139H188.152V18.9821H188.374C189.277 16.802 191.225 15.5748 193.807 15.5748C197.56 15.5748 199.587 17.8678 199.587 22.0987V33.5156H196.404V22.9061C196.404 19.8864 195.216 18.4653 192.666 18.4653C190.021 18.4653 188.247 20.3547 188.247 23.1968V33.5156H185.08Z" fill="black"/>
<path d="M209.708 23.5843L216.771 15.9139H220.541L213.936 22.9868L221 33.5156H217.262L211.64 25.1023L209.47 27.2661V33.5156H206.303V9.05084H209.47V23.5843H209.708Z" fill="black"/>
</svg>
