<svg width="18" height="18" viewBox="0 0 18 18" fill="none" xmlns="http://www.w3.org/2000/svg">
<path d="M7.27606 2.09481C8.16917 1.00957 9.83083 1.00957 10.7239 2.09481C11.1964 2.66891 11.9237 2.97015 12.6637 2.89828C14.0626 2.76242 15.2376 3.9374 15.1017 5.3363C15.0298 6.07634 15.3311 6.80359 15.9052 7.27606C16.9904 8.16917 16.9904 9.83083 15.9052 10.7239C15.3311 11.1964 15.0298 11.9237 15.1017 12.6637C15.2376 14.0626 14.0626 15.2376 12.6637 15.1017C11.9237 15.0298 11.1964 15.3311 10.7239 15.9052C9.83083 16.9904 8.16917 16.9904 7.27606 15.9052C6.80359 15.3311 6.07634 15.0298 5.3363 15.1017C3.9374 15.2376 2.76242 14.0626 2.89828 12.6637C2.97015 11.9237 2.66891 11.1964 2.09481 10.7239C1.00957 9.83083 1.00957 8.16917 2.09481 7.27606C2.66891 6.80359 2.97015 6.07634 2.89828 5.3363C2.76242 3.9374 3.9374 2.76242 5.3363 2.89828C6.07634 2.97015 6.80359 2.66891 7.27606 2.09481Z" fill="black"/>
<g clip-path="url(#clip0_1552_378)">
<path d="M11.8398 6.71609C11.8955 6.75454 11.9432 6.8036 11.98 6.86046C12.0168 6.91733 12.042 6.98089 12.0542 7.04751C12.0665 7.11414 12.0654 7.18251 12.0512 7.24874C12.037 7.31497 12.0099 7.37775 11.9714 7.43349L8.53393 12.4179C8.4901 12.4814 8.43254 12.5343 8.36552 12.5727C8.2985 12.611 8.22373 12.6338 8.14671 12.6394C8.0697 12.645 7.99242 12.6332 7.92058 12.6049C7.84873 12.5766 7.78416 12.5325 7.73162 12.476L5.49725 10.0697C5.40416 9.96952 5.3547 9.83645 5.35972 9.69978C5.36475 9.56312 5.42387 9.43404 5.52406 9.34096C5.62425 9.24788 5.75732 9.19841 5.89399 9.20344C6.03065 9.20847 6.15973 9.26758 6.25281 9.36777L8.04993 11.3031L11.1224 6.84809C11.1608 6.7923 11.2098 6.74462 11.2667 6.70779C11.3235 6.67096 11.3871 6.64569 11.4537 6.63344C11.5203 6.62118 11.5887 6.62217 11.655 6.63635C11.7212 6.65053 11.784 6.67763 11.8398 6.71609Z" fill="white"/>
</g>
<defs>
<clipPath id="clip0_1552_378">
<rect width="8.25" height="8.25" fill="white" transform="translate(4.5 5.25)"/>
</clipPath>
</defs>
</svg>
