<svg width="23" height="24" viewBox="0 0 23 24" fill="none" xmlns="http://www.w3.org/2000/svg">
<path d="M14.8225 3C15.1808 2.99999 15.5297 3.11973 15.8181 3.34166C16.1064 3.56358 16.3191 3.87604 16.4249 4.23325L16.9481 6H18.4479C19.9034 6 21.0833 7.23125 21.0833 8.75V18.75C21.0833 20.2687 19.9034 21.5 18.4479 21.5H4.55207C3.0966 21.5 1.91666 20.2687 1.91666 18.75V8.75C1.91666 7.23125 3.0966 6 4.55207 6H6.05186L6.57511 4.23325C6.68091 3.87604 6.89357 3.56358 7.18192 3.34166C7.47026 3.11973 7.81915 2.99999 8.17745 3H14.8225ZM11.5 9.5C9.51528 9.5 7.90624 11.179 7.90624 13.25C7.90624 15.321 9.51528 17 11.5 17C13.4847 17 15.0937 15.321 15.0937 13.25C15.0937 11.179 13.4847 9.5 11.5 9.5ZM11.5 15.5C12.0719 15.5 12.6203 15.2629 13.0247 14.841C13.4291 14.419 13.6562 13.8467 13.6562 13.25C13.6562 12.6533 13.4291 12.081 13.0247 11.659C12.6203 11.2371 12.0719 11 11.5 11C10.9281 11 10.3797 11.2371 9.97529 11.659C9.57091 12.081 9.34374 12.6533 9.34374 13.25C9.34374 13.8467 9.57091 14.419 9.97529 14.841C10.3797 15.2629 10.9281 15.5 11.5 15.5Z" fill="white"/>
</svg>
