<svg width="24" height="24" viewBox="0 0 24 24" fill="none" xmlns="http://www.w3.org/2000/svg">
<path d="M8.5 14.5C10.5 14.5 12.5 13.467 14 11.7033C18 7 20.7121 8.4083 22 8.9999C19.25 10.4999 20.25 14.8117 16.5 17.9999C14.191 19.963 11.7473 20.507 9.5 20.5C6.26155 20.49 3.43113 18.8819 2 17.7032V8.4999" stroke="#1C1F23" stroke-width="2" stroke-linecap="round" stroke-linejoin="round"/>
<path d="M2.82404 7.93345C2.51116 7.47835 1.88858 7.36305 1.43347 7.67595C0.978366 7.98885 0.863076 8.6114 1.17596 9.06655L2.82404 7.93345ZM18.0011 17.8655C18.479 17.5887 18.6421 16.977 18.3654 16.499C18.0887 16.021 17.4769 15.8579 16.999 16.1346L18.0011 17.8655ZM1.17596 9.06655C2.62175 11.1695 5.3996 14.072 8.44325 16.112C9.96725 17.1334 11.6085 17.973 13.2245 18.3662C14.8473 18.761 16.5226 18.7214 18.0011 17.8655L16.999 16.1346C16.1025 16.6536 14.9965 16.739 13.6974 16.4229C12.3915 16.1052 10.9703 15.3979 9.55675 14.4506C6.7254 12.553 4.12825 9.8305 2.82404 7.93345L1.17596 9.06655Z" fill="#1C1F23"/>
<path d="M16.7974 8.5C16.42 7.35135 15.4276 4.97027 13.7974 3.5H5.79736C7.60871 5.33785 11.5001 8 13.5001 12" stroke="#1C1F23" stroke-width="2" stroke-linecap="round" stroke-linejoin="round"/>
</svg>
