<svg width="27" height="26" viewBox="0 0 27 26" fill="none" xmlns="http://www.w3.org/2000/svg">
<path fill-rule="evenodd" clip-rule="evenodd" d="M13.5 0.375C6.24963 0.375 0.375 6.24963 0.375 13.5C0.375 19.2977 4.13477 24.2196 9.35144 25.9542C10.0094 26.0739 10.2487 25.6722 10.2487 25.3219C10.2487 25.01 10.2358 24.1854 10.2316 23.0917C6.57861 23.8821 5.80957 21.3314 5.80957 21.3314C5.21143 19.8147 4.35266 19.4088 4.35266 19.4088C3.16064 18.597 4.44238 18.6141 4.44238 18.6141C5.7583 18.7081 6.45044 19.9642 6.45044 19.9642C7.62109 21.9723 9.52234 21.3912 10.27 21.058C10.3896 20.2078 10.7314 19.631 11.1031 19.302C8.18933 18.973 5.12598 17.8451 5.12598 12.8164C5.12598 11.3809 5.63867 10.2102 6.47607 9.29163C6.34363 8.96265 5.89075 7.62537 6.60425 5.81812C6.60425 5.81812 7.70654 5.46777 10.2145 7.16394C11.2612 6.87341 12.3849 6.72815 13.5 6.72388C14.6151 6.72815 15.7388 6.87341 16.7855 7.16394C19.2935 5.46777 20.3915 5.81812 20.3915 5.81812C21.1093 7.62537 20.6606 8.96265 20.5239 9.29163C21.3656 10.2102 21.8698 11.3809 21.8698 12.8164C21.8698 17.8579 18.8021 18.9645 15.8798 19.2935C16.3497 19.6951 16.7684 20.4983 16.7684 21.7202C16.7684 23.4762 16.7556 24.8904 16.7556 25.3219C16.7556 25.6722 16.9906 26.0824 17.6571 25.9542C22.8695 24.2153 26.625 19.2977 26.625 13.5C26.625 6.24963 20.7504 0.375 13.5 0.375Z" fill="#1C1F23"/>
</svg>
