<svg width="22" height="20" viewBox="0 0 22 20" fill="none" xmlns="http://www.w3.org/2000/svg">
  <path
    d="M2 2.32692C2 3.05976 2.59408 3.65385 3.32692 3.65385C4.05976 3.65385 4.65385 3.05976 4.65385 2.32692C4.65385 1.59408 4.05976 1 3.32692 1C2.59408 1 2 1.59408 2 2.32692Z"
    fill="#2C2C2C" />
  <path
    d="M9.65384 2.32693C9.65384 3.05977 10.2479 3.65386 10.9808 3.65386C11.7136 3.65386 12.3077 3.05977 12.3077 2.32693C12.3077 1.59409 11.7136 1 10.9808 1C10.2479 1 9.65384 1.59409 9.65384 2.32693Z"
    fill="#2C2C2C" />
  <path
    d="M18.6346 1C17.9018 1 17.3077 1.59408 17.3077 2.32692C17.3077 3.05976 17.9018 3.65385 18.6346 3.65385C19.3674 3.65385 19.9615 3.05976 19.9615 2.32692C19.9615 1.59408 19.3674 1 18.6346 1Z"
    fill="#2C2C2C" />
  <path
    d="M2 9.98079C2 10.7136 2.59408 11.3077 3.32692 11.3077C4.05976 11.3077 4.65385 10.7136 4.65385 9.98079C4.65385 9.24795 4.05976 8.65387 3.32692 8.65387C2.59408 8.65387 2 9.24795 2 9.98079Z"
    fill="#2C2C2C" />
  <path
    d="M9.65384 9.9808C9.65384 10.7136 10.2479 11.3077 10.9808 11.3077C11.7136 11.3077 12.3077 10.7136 12.3077 9.9808C12.3077 9.24796 11.7136 8.65387 10.9808 8.65387C10.2479 8.65387 9.65384 9.24796 9.65384 9.9808Z"
    fill="#2C2C2C" />
  <path
    d="M17.3077 9.98079C17.3077 10.7136 17.9018 11.3077 18.6346 11.3077C19.3674 11.3077 19.9615 10.7136 19.9615 9.98079C19.9615 9.24795 19.3674 8.65387 18.6346 8.65387C17.9018 8.65387 17.3077 9.24795 17.3077 9.98079Z"
    fill="#2C2C2C" />
  <path
    d="M2 17.6347C2 18.3675 2.59408 18.9616 3.32692 18.9616C4.05976 18.9616 4.65385 18.3675 4.65385 17.6347C4.65385 16.9018 4.05976 16.3077 3.32692 16.3077C2.59408 16.3077 2 16.9018 2 17.6347Z"
    fill="#2C2C2C" />
  <path
    d="M9.65384 17.6347C9.65384 18.3675 10.2479 18.9616 10.9808 18.9616C11.7136 18.9616 12.3077 18.3675 12.3077 17.6347C12.3077 16.9018 11.7136 16.3077 10.9808 16.3077C10.2479 16.3077 9.65384 16.9018 9.65384 17.6347Z"
    fill="#2C2C2C" />
  <path
    d="M17.3077 17.6347C17.3077 18.3675 17.9018 18.9616 18.6346 18.9616C19.3674 18.9616 19.9615 18.3675 19.9615 17.6347C19.9615 16.9018 19.3674 16.3077 18.6346 16.3077C17.9018 16.3077 17.3077 16.9018 17.3077 17.6347Z"
    fill="#2C2C2C" />
</svg>