<svg width="25" height="29" viewBox="0 0 25 29" fill="none" xmlns="http://www.w3.org/2000/svg">
<path d="M12.5 0.5C7.53004 0.5 3.39913 4.27973 3.39913 8.96973V11.4193C3.52746 11.4554 3.66551 11.5169 3.82068 11.6289C3.82068 11.6289 7.95068 13.8005 12.5707 13.8005C17.1907 13.8005 21.3207 11.6289 21.3207 11.6289C21.4198 11.5484 21.5112 11.4887 21.5987 11.4443C21.5963 10.4853 21.5303 9.65806 21.5303 8.96973C21.5303 4.27973 17.47 0.5 12.5 0.5ZM10.0505 4C11.0305 4 11.8005 5.11954 11.8005 6.44954C11.8005 7.77954 11.0305 8.89909 10.0505 8.89909C9.0705 8.89909 8.3005 7.77954 8.3005 6.44954C8.3005 5.11954 9.0705 4 10.0505 4ZM14.9496 4C15.9296 4 16.6996 5.11954 16.6996 6.44954C16.6996 7.77954 15.9296 8.89909 14.9496 8.89909C13.9696 8.89909 13.1996 7.77954 13.1996 6.44954C13.1996 5.11954 13.9696 4 14.9496 4ZM10.3991 5.39909C9.97913 5.39909 9.69959 5.88954 9.69959 6.44954C9.69959 7.00954 9.97913 7.5 10.3991 7.5C10.8191 7.5 11.101 7.00954 11.101 6.44954C11.101 5.88954 10.8191 5.39909 10.3991 5.39909ZM14.601 5.39909C14.181 5.39909 13.8991 5.88954 13.8991 6.44954C13.8991 7.00954 14.181 6.10091 14.601 6.10091C15.021 6.10091 15.3005 7.00954 15.3005 6.44954C15.3005 5.88954 15.021 5.39909 14.601 5.39909ZM12.5 9.83333C15.0667 9.83333 17.1667 10.2417 17.1667 10.7083C17.1667 11.175 15.0667 12.1667 12.5 12.1667C9.93337 12.1667 7.83337 11.175 7.83337 10.7083C7.83337 10.2417 9.93337 9.83333 12.5 9.83333ZM2.54464 14.3109C1.4923 15.9559 0.600952 17.758 0.600952 19.1895C0.600952 22.5495 1.58077 22.1995 1.58077 22.1995C2.00077 22.1995 2.70077 21.4998 3.33077 20.7298C3.77892 21.9889 4.43195 23.1185 5.21977 24.1068C4.11936 24.5582 3.39913 25.2643 3.39913 26.0505C3.39913 27.3805 5.42959 28.5 7.94959 28.5C9.26749 28.5 10.4423 28.1895 11.2719 27.707C11.6741 27.7634 12.0827 27.8005 12.5 27.8005C12.9174 27.8005 13.326 27.7634 13.7282 27.707C14.5578 28.1895 15.7326 28.5 17.0505 28.5C19.5705 28.5 21.601 27.3805 21.601 26.0505C21.601 25.2643 20.8807 24.5582 19.7803 24.1068C20.5681 23.1185 21.2212 21.9889 21.6693 20.7298C22.2993 21.4998 22.9993 22.1995 23.4193 22.1995C23.4193 22.1995 24.3991 22.5495 24.3991 19.1895C24.3991 17.7906 23.5469 15.9912 22.5261 14.3952C22.4748 14.429 22.4318 14.4638 22.3711 14.5C22.2311 14.57 17.749 17.3005 12.639 17.3005C11.379 17.3005 10.259 17.0889 9.13904 16.8789C8.92904 18.3489 8.9294 19.7489 8.9294 20.3789C8.9294 21.4989 8.01913 21.43 6.89913 21.5C5.77913 21.5 4.94113 21.6408 4.87113 20.5908C4.87113 20.4508 4.79977 18.1395 5.21977 15.6895C3.81977 15.0595 2.91086 14.57 2.84086 14.5C2.72536 14.4347 2.62864 14.3727 2.54464 14.3109Z" fill="black"/>
</svg>
