<svg width="37" height="37" viewBox="0 0 37 37" fill="none" xmlns="http://www.w3.org/2000/svg">
<path d="M18.5 33.9167C27.0144 33.9167 33.9167 27.0144 33.9167 18.5C33.9167 9.98565 27.0144 3.08337 18.5 3.08337C9.98565 3.08337 3.08337 9.98565 3.08337 18.5C3.08337 27.0144 9.98565 33.9167 18.5 33.9167Z" stroke="black" stroke-width="2" stroke-linecap="round" stroke-linejoin="round"/>
<path d="M22.0613 12.3334L30.9104 27.6575" stroke="black" stroke-width="2" stroke-linecap="round" stroke-linejoin="round"/>
<path d="M14.9387 12.3334H32.6371" stroke="black" stroke-width="2" stroke-linecap="round" stroke-linejoin="round"/>
<path d="M11.3774 18.4999L20.2266 3.17578" stroke="black" stroke-width="2" stroke-linecap="round" stroke-linejoin="round"/>
<path d="M14.9388 24.6667L6.0896 9.34253" stroke="black" stroke-width="2" stroke-linecap="round" stroke-linejoin="round"/>
<path d="M22.0613 24.6666H4.36292" stroke="black" stroke-width="2" stroke-linecap="round" stroke-linejoin="round"/>
<path d="M25.6225 18.5L16.7733 33.8242" stroke="black" stroke-width="2" stroke-linecap="round" stroke-linejoin="round"/>
<path d="M16.5749 15.064L20.7028 15.064L22.7667 18.6388L20.7028 22.2137L16.5749 22.2137L14.5109 18.6388L16.5749 15.064Z" fill="#EE4D4D"/>
</svg>
