<svg width="50" height="50" viewBox="0 0 50 50" fill="none" xmlns="http://www.w3.org/2000/svg">
  <path
    d="M42.9685 28.634L33.967 44L24.9818 38.8331L19.0828 35.4409L13.1838 38.8331L3.99999 23.512L13.0362 18.3451L18.9097 14.9866L19.0633 8.03369L37.0207 8.03369V18.3451V25.1969L42.9685 28.634Z"
    fill="#F7F7F7" />
  <path
    d="M42.9685 28.634L37.0207 32.0487L37.0207 25.1969M42.9685 28.634L33.967 44L24.9818 38.8331M42.9685 28.634L37.0207 25.1969M13.1838 38.8331L13.1838 32.0487L19.0828 35.4409M13.1838 38.8331L3.99999 23.512L13.0362 18.3451M13.1838 38.8331L19.0828 35.4409M19.0633 8.03369L24.7832 11.6281L18.9097 14.9866M19.0633 8.03369L37.0207 8.03369V18.3451M19.0633 8.03369L18.9097 14.9866M37.0207 18.3451L31.0729 14.8181L25.0681 18.2889M37.0207 18.3451L31.0729 21.7597M37.0207 18.3451V25.1969M19.0633 21.7597L13.0362 18.3451M19.0633 21.7597L25.0681 18.2889M19.0633 21.7597L19.009 28.634M13.0362 18.3451V25.2193L19.009 28.634M13.0362 18.3451L18.9097 14.9866M24.9818 38.8331L31.0729 35.4633L31.0729 28.6115M24.9818 38.8331L24.9818 32.0487M24.9818 38.8331L19.0828 35.4409M31.0729 21.7597L31.0729 28.6115M31.0729 21.7597L25.0681 18.2889M24.9818 32.0487L31.0729 28.6115M24.9818 32.0487L19.009 28.634M31.0729 28.6115L24.9818 25.2193M24.9818 25.2193L25.0681 18.2889M24.9818 25.2193L19.009 28.634"
    stroke="black" stroke-width="1.5" />
  <path
    d="M19.0627 8L24.7827 11.5944L18.9091 14.9529L13.0356 18.3114L19.0627 21.7261L25.0675 18.2552L31.0723 14.7844L37.0201 18.3114V8L19.0627 8Z"
    fill="url(#paint0_linear_1551_320)" />
  <path
    d="M19.0627 8L24.7827 11.5944L18.9091 14.9529L13.0356 18.3114L19.0627 21.7261L25.0675 18.2552L31.0723 14.7844L37.0201 18.3114V8L19.0627 8ZM19.0627 8V9.34789"
    stroke="black" stroke-width="1.5" />
  <path
    d="M42.9799 28.6452L37.035 32.0374L37.035 25.0721L37.0213 18.3785L31.008 21.8166L31.0547 28.6785L31.1014 35.5403L25.0291 38.8546L33.9556 43.9663L42.9799 28.6452Z"
    fill="url(#paint1_linear_1551_320)" />
  <path
    d="M42.9799 28.6452L37.035 32.0374L37.035 25.0721L37.0213 18.3785L31.008 21.8166L31.0547 28.6785L31.1014 35.5403L25.0291 38.8546L33.9556 43.9663L42.9799 28.6452ZM42.9799 28.6452L41.8822 28.0057"
    stroke="black" stroke-width="1.5" />
  <path
    d="M13.1724 38.7994L13.1724 32.0599L19.1088 35.5431L24.9822 38.7994L24.9822 32.0254L18.9307 28.6344L12.8791 25.2434L13.0129 18.3114L4.04983 23.4671L13.1724 38.7994Z"
    fill="url(#paint2_linear_1551_320)" />
  <path
    d="M13.1724 38.7994L13.1724 32.0599L19.1088 35.5431L24.9822 38.7994L24.9822 32.0254L18.9307 28.6344L12.8791 25.2434L13.0129 18.3114L4.04983 23.4671L13.1724 38.7994ZM13.1724 38.7994L14.1751 38.2602"
    stroke="black" stroke-width="1.5" />
  <defs>
    <linearGradient id="paint0_linear_1551_320" x1="34.4341" y1="3.25991" x2="24.3752" y2="17.84"
      gradientUnits="userSpaceOnUse">
      <stop stop-color="#C0C0C0" />
      <stop offset="1" stop-color="white" />
    </linearGradient>
    <linearGradient id="paint1_linear_1551_320" x1="39.5449" y1="44.1726" x2="32.1584" y2="28.1143"
      gradientUnits="userSpaceOnUse">
      <stop stop-color="#C0C0C0" />
      <stop offset="1" stop-color="white" />
    </linearGradient>
    <linearGradient id="paint2_linear_1551_320" x1="1.07392" y1="28.1356" x2="18.8874" y2="29.7121"
      gradientUnits="userSpaceOnUse">
      <stop stop-color="#C0C0C0" />
      <stop offset="1" stop-color="white" />
    </linearGradient>
  </defs>
</svg>