<svg width="69" height="66" viewBox="0 0 69 66" fill="none" xmlns="http://www.w3.org/2000/svg">
<path d="M50.5832 37.4044L61.5125 40.3718L43.011 62.3792L31.8723 59.3675L50.5832 37.4044Z" fill="url(#paint0_linear_936_49)"/>
<path d="M45.2171 27.3265L50.5832 37.4044L31.8723 59.3675L23.5461 43.7305L29.1889 36.4206L32.6593 42.9381L36.3569 38.3413L45.2171 27.3265Z" fill="url(#paint1_linear_936_49)"/>
<path d="M23.3202 38.2748L12.3119 35.3857L6.8088 25.4436L17.7775 28.2611L23.3202 38.2748Z" fill="url(#paint2_linear_936_49)"/>
<path d="M17.7775 28.2611L6.8088 25.4436L24.884 3.15285L36.0626 6.01176L17.7775 28.2611Z" fill="url(#paint3_linear_936_49)"/>
<path d="M45.2171 27.3265L56.1847 30.366L61.5125 40.3718L50.5832 37.4044L45.2171 27.3265Z" fill="url(#paint4_linear_936_49)"/>
<path d="M23.3202 38.2748L17.7775 28.2611L36.0626 6.01176L44.6628 21.5492L39.1609 28.9461L35.5763 22.4701L32.035 27.0367L23.3202 38.2748Z" fill="url(#paint5_linear_936_49)"/>
<path d="M35.5763 22.4701L39.1609 28.9461L35.598 27.9914L32.035 27.0367L35.5763 22.4701Z" fill="url(#paint6_linear_936_49)"/>
<path d="M32.6593 42.9381L29.1889 36.4206L36.3569 38.3413L32.6593 42.9381Z" fill="url(#paint7_linear_936_49)"/>
<path d="M45.2171 27.3265L56.1847 30.366L61.5125 40.3718M45.2171 27.3265L50.5832 37.4044M45.2171 27.3265L36.3569 38.3413M50.5832 37.4044L61.5125 40.3718M50.5832 37.4044L31.8723 59.3675M61.5125 40.3718L43.011 62.3792L31.8723 59.3675M31.8723 59.3675L23.5461 43.7305L29.1889 36.4206M29.1889 36.4206L32.6593 42.9381L36.3569 38.3413M29.1889 36.4206L36.3569 38.3413M23.3202 38.2748L12.3119 35.3857L6.8088 25.4436M23.3202 38.2748L17.7775 28.2611M23.3202 38.2748L32.035 27.0367M17.7775 28.2611L6.8088 25.4436M17.7775 28.2611L36.0626 6.01176M6.8088 25.4436L24.884 3.15285L36.0626 6.01176M36.0626 6.01176L44.6628 21.5492L39.1609 28.9461M39.1609 28.9461L35.5763 22.4701L32.035 27.0367M39.1609 28.9461L35.598 27.9914L32.035 27.0367" stroke="black"/>
<defs>
<linearGradient id="paint0_linear_936_49" x1="12.7372" y1="42.0382" x2="44.1945" y2="-1.95879" gradientUnits="userSpaceOnUse">
<stop stop-color="#D9D9D9"/>
<stop offset="1" stop-color="white"/>
</linearGradient>
<linearGradient id="paint1_linear_936_49" x1="12.7372" y1="42.0382" x2="44.1945" y2="-1.95879" gradientUnits="userSpaceOnUse">
<stop stop-color="#D9D9D9"/>
<stop offset="1" stop-color="white"/>
</linearGradient>
<linearGradient id="paint2_linear_936_49" x1="12.7372" y1="42.0382" x2="44.1945" y2="-1.95879" gradientUnits="userSpaceOnUse">
<stop stop-color="#D9D9D9"/>
<stop offset="1" stop-color="white"/>
</linearGradient>
<linearGradient id="paint3_linear_936_49" x1="12.7372" y1="42.0382" x2="44.1945" y2="-1.95879" gradientUnits="userSpaceOnUse">
<stop stop-color="#D9D9D9"/>
<stop offset="1" stop-color="white"/>
</linearGradient>
<linearGradient id="paint4_linear_936_49" x1="12.7372" y1="42.0382" x2="44.1945" y2="-1.95879" gradientUnits="userSpaceOnUse">
<stop stop-color="#D9D9D9"/>
<stop offset="1" stop-color="white"/>
</linearGradient>
<linearGradient id="paint5_linear_936_49" x1="12.7372" y1="42.0382" x2="44.1945" y2="-1.95879" gradientUnits="userSpaceOnUse">
<stop stop-color="#D9D9D9"/>
<stop offset="1" stop-color="white"/>
</linearGradient>
<linearGradient id="paint6_linear_936_49" x1="12.7372" y1="42.0382" x2="44.1945" y2="-1.95879" gradientUnits="userSpaceOnUse">
<stop stop-color="#D9D9D9"/>
<stop offset="1" stop-color="white"/>
</linearGradient>
<linearGradient id="paint7_linear_936_49" x1="12.7372" y1="42.0382" x2="44.1945" y2="-1.95879" gradientUnits="userSpaceOnUse">
<stop stop-color="#D9D9D9"/>
<stop offset="1" stop-color="white"/>
</linearGradient>
</defs>
</svg>
